//---------- HARDCODED SONGS ------------- //


//Mario main theme melody
short melody[] = {
  NOTE_E7, NOTE_E7, 0, NOTE_E7, 
  0, NOTE_C7, NOTE_E7, 0,
  NOTE_G7, 0, 0,  0,
  NOTE_G6, 0, 0, 0, 

  NOTE_C7, 0, 0, NOTE_G6, 
  0, 0, NOTE_E6, 0, 
  0, NOTE_A6, 0, NOTE_B6, 
  0, NOTE_AS6, NOTE_A6, 0, 

  NOTE_G6, NOTE_E7, NOTE_G7, 
  NOTE_A7, 0, NOTE_F7, NOTE_G7, 
  0, NOTE_E7, 0,NOTE_C7, 
  NOTE_D7, NOTE_B6, 0, 0,

  NOTE_C7, 0, 0, NOTE_G6, 
  0, 0, NOTE_E6, 0, 
  0, NOTE_A6, 0, NOTE_B6, 
  0, NOTE_AS6, NOTE_A6, 0, 

  NOTE_G6, NOTE_E7, NOTE_G7, 
  NOTE_A7, 0, NOTE_F7, NOTE_G7, 
  0, NOTE_E7, 0,NOTE_C7, 
  NOTE_D7, NOTE_B6, 0, 0
};
short tempo[] = {
  12, 12, 12, 12,
  12, 12, 12, 12,
  12, 12, 12, 12,
  12, 12, 12, 12,

  12, 12, 12, 12,
  12, 12, 12, 12,
  12, 12, 12, 12,
  12, 12, 12, 12,

  9, 9, 9,
  12, 12, 12, 12,
  12, 12, 12, 12,
  12, 12, 12, 12,

  12, 12, 12, 12,
  12, 12, 12, 12,
  12, 12, 12, 12,
  12, 12, 12, 12,

  9, 9, 9,
  12, 12, 12, 12,
  12, 12, 12, 12,
  12, 12, 12, 12,
};

//Never Gonna Give you up
short song1_verse1_melody[] =
{ NOTE_AS4, NOTE_AS4, NOTE_GS4, NOTE_GS4,
  NOTE_F5, NOTE_F5, NOTE_DS5, NOTE_AS4, NOTE_AS4, NOTE_GS4, NOTE_GS4, NOTE_DS5, NOTE_DS5, NOTE_CS5, NOTE_C5, NOTE_AS4,
  NOTE_CS5, NOTE_CS5, NOTE_CS5, NOTE_CS5,
  NOTE_CS5, NOTE_DS5, NOTE_C5, NOTE_AS4, NOTE_GS4, NOTE_GS4, NOTE_GS4, NOTE_DS5, NOTE_CS5,
  NOTE_AS4, NOTE_AS4, NOTE_GS4, NOTE_GS4,
  NOTE_F5, NOTE_F5, NOTE_DS5, NOTE_AS4, NOTE_AS4, NOTE_GS4, NOTE_GS4, NOTE_GS5, NOTE_C5, NOTE_CS5, NOTE_C5, NOTE_AS4,
  NOTE_CS5, NOTE_CS5, NOTE_CS5, NOTE_CS5,
  NOTE_CS5, NOTE_DS5, NOTE_C5, NOTE_AS4, NOTE_GS4, 0, NOTE_GS4, NOTE_DS5, NOTE_CS5, 0
};
short song1_verse1_rhythmn[] =
{ 1, 1, 1, 1,
  3, 3, 6, 1, 1, 1, 1, 3, 3, 3, 1, 2,
  1, 1, 1, 1,
  3, 3, 3, 1, 2, 2, 2, 4, 8,
  1, 1, 1, 1,
  3, 3, 6, 1, 1, 1, 1, 3, 3, 3, 1, 2,
  1, 1, 1, 1,
  3, 3, 3, 1, 2, 2, 2, 4, 8, 4
};

//千本樱
short tune2[]=
{
  /*
  NOTE_DS5,NOTE_DS5,NOTE_CS5,NOTE_DS5,NOTE_DS5,NOTE_CS5,  //1
  NOTE_DS5,NOTE_DS5,NOTE_CS5,NOTE_DS5,NOTE_F5,  //2
  NOTE_DS5,NOTE_DS5,NOTE_CS5,NOTE_DS5,NOTE_DS5,NOTE_CS5,  //3
  NOTE_DS5,NOTE_F5,NOTE_G5,NOTE_A5,  //4
  NOTE_G4,NOTE_A4,NOTE_D4,NOTE_C4,NOTE_D4,NOTE_C4,NOTE_G4,NOTE_A4,NOTE_D4,NOTE_C4,NOTE_D4,NOTE_C4,  //5
  NOTE_G4,NOTE_A4,NOTE_D4,NOTE_C4,NOTE_D4,NOTE_C4,NOTE_F4,NOTE_E4,NOTE_D4,NOTE_C4,  //6
  NOTE_G4,NOTE_A4,NOTE_D4,NOTE_C4,NOTE_D4,NOTE_C4,NOTE_G4,NOTE_A4,NOTE_D4,NOTE_C4,NOTE_D4,NOTE_C4,  //7
  NOTE_G4,NOTE_A4,NOTE_CS5,NOTE_F5,NOTE_E5,NOTE_F5,NOTE_E5,NOTE_DS5,NOTE_CS5,NOTE_A4,  //8
  NOTE_G4,NOTE_A4,NOTE_D4,NOTE_C4,NOTE_D4,NOTE_C4,NOTE_G4,NOTE_A4,NOTE_D4,NOTE_C4,NOTE_D4,NOTE_C4,  //9
  NOTE_G4,NOTE_A4,NOTE_D4,NOTE_C4,NOTE_D4,NOTE_C4,NOTE_F4,NOTE_E4,NOTE_D4,NOTE_C4,  //10
  NOTE_F4,NOTE_D4,NOTE_F4,NOTE_G4,NOTE_F4,NOTE_G4,NOTE_A4,NOTE_G4,NOTE_A4,NOTE_CS5,NOTE_F5,NOTE_A4,NOTE_CS5,  //11
  NOTE_F5,NOTE_E5,NOTE_DS5,NOTE_CS5,NOTE_DS5,NOTE_DS5,NOTE_F5,  //12
  NOTE_G5,NOTE_A5,NOTE_DS5,NOTE_CS5,NOTE_DS5,NOTE_CS5,NOTE_G5,NOTE_A5,NOTE_DS5,NOTE_CS5,NOTE_DS5,NOTE_CS5,  //13
  NOTE_G5,NOTE_A5,NOTE_DS5,NOTE_CS5,NOTE_DS5,NOTE_CS5,NOTE_F5,NOTE_E5,NOTE_DS5,NOTE_CS5,  //14
  NOTE_G5,NOTE_A5,NOTE_DS5,NOTE_CS5,NOTE_DS5,NOTE_CS5,NOTE_G5,NOTE_A5,NOTE_DS5,NOTE_CS5,NOTE_DS5,NOTE_CS5,  //15
  NOTE_G5,NOTE_A5,NOTE_C6,NOTE_FS6,NOTE_E6,NOTE_FS6,NOTE_E6,NOTE_D6,NOTE_C6,NOTE_A5, //16
  NOTE_G5,NOTE_A5,NOTE_DS5,NOTE_CS5,NOTE_DS5,NOTE_CS5,NOTE_G5,NOTE_A5,NOTE_DS5,NOTE_CS5,NOTE_DS5,NOTE_CS5,  //17
  NOTE_G5,NOTE_A5,NOTE_DS5,NOTE_CS5,NOTE_DS5,NOTE_CS5,NOTE_F5,NOTE_E5,NOTE_DS5,NOTE_CS5,  //18
  NOTE_A5,NOTE_G5,NOTE_A5,NOTE_C6,NOTE_D6,NOTE_C6,NOTE_AS5,NOTE_G5,NOTE_DS5,NOTE_F5,NOTE_A5,NOTE_C6,  //19
  NOTE_D6,NOTE_D6,NOTE_C6,NOTE_D6,  //20
  NOTE_DS5,NOTE_DS5,NOTE_CS5,NOTE_DS5,NOTE_F5,NOTE_G5,NOTE_A5,  //21
  NOTE_DS5,NOTE_DS5,NOTE_CS5,NOTE_DS5,NOTE_CS5,NOTE_A4,NOTE_CS5,  //22
  NOTE_DS5,NOTE_DS5,NOTE_CS5,NOTE_DS5,NOTE_F5,NOTE_G5,NOTE_A5,  //23
  NOTE_A5,NOTE_G5,NOTE_F5,NOTE_DS5,  //24
  NOTE_DS5,NOTE_DS5,NOTE_CS5,NOTE_DS5,NOTE_F5,NOTE_G5,NOTE_A5,  //25
  NOTE_DS5,NOTE_DS5,NOTE_CS5,NOTE_DS5,NOTE_CS5,NOTE_CS5,NOTE_A4,  //26
  NOTE_DS5,NOTE_DS5,NOTE_CS5,NOTE_CS5,NOTE_DS5,NOTE_F5,NOTE_G5,  //27
  NOTE_A5,NOTE_G5,NOTE_F5,NOTE_DS5,  //28
  NOTE_F5,NOTE_E5,NOTE_DS5,NOTE_CS5,  //29
  NOTE_CS5,NOTE_CS5,NOTE_DS5,NOTE_A4,NOTE_G4,NOTE_A4,  //30
  NOTE_A4,NOTE_CS5,NOTE_DS5,NOTE_G5,NOTE_E5,  //31
  NOTE_F5,NOTE_E5,NOTE_CS5,NOTE_DS5,  //32
  NOTE_F5,NOTE_E5,NOTE_DS5,NOTE_CS5,  //33
  NOTE_CS5,NOTE_CS5,NOTE_DS5,NOTE_A4,NOTE_G4,NOTE_A4,NOTE_A4,NOTE_CS5,  //34
  NOTE_DS5,NOTE_DS5,NOTE_DS5,NOTE_F5,NOTE_G5,  //35
  NOTE_E5,0  //36
  */
};
short durt2[]=
{
  /*
  2,4,2,2,4,2,  //4
  2,4,2,4,4,  //2
  2,4,2,2,4,2,  //3
  4,4,4,4,  //4
  2,2,1,1,1,1,2,2,1,1,1,1,  //5
  2,2,1,1,1,1,2,2,2,2,  //6
  2,2,1,1,1,1,2,2,1,1,1,1,  //7
  2,2,2,2,1,1,1,1,2,2,  //8
  2,2,1,1,1,1,2,2,1,1,1,1,  //9
  2,2,1,1,1,1,2,2,2,2,  //40
  2,1,1,2,1,1,2,1,1,1,1,1,1,  //44
  2,2,2,2,4,2,2,  //42
  2,2,1,1,1,1,2,2,1,1,1,1,  //43
  2,2,1,1,1,1,2,2,2,2,  //44
  2,2,1,1,1,1,2,2,1,1,1,1,  //45
  2,2,2,2,1,1,1,1,2,2,  //46
  2,2,1,1,1,1,2,2,1,1,1,1,  //47
  2,2,1,1,1,1,2,2,2,2,  //48
  1,1,1,1,1,1,1,1,2,2,2,2,  //49
  2,4,2,4+4,  //20
  4,1+2,1,2,2,2,2,  //24
  4,1+2,1,2,2,2,2,  //22
  4,1+2,1,2,2,2,2,  //23
  4,4,4,4,  //24
  4,1+2,1,2,2,2,2,  //25
  4,1+2,1,2,2,2,2,  //26
  4,1+2,1,2,2,2,2,  //27
  4,4,4,4,  //28
  4,4,4,4,  //29
  2,1,1,2,2,4+4,  //30
  2,2,4,4,4,  //34
  4,2,2,4+4,  //32
  4,4,4,4,  //33
  2,1,1,2,2,4,2,2,  //34
  2,4,2,4,4,  //35
  4+4+4,4+4+4  //36
  */
};

//极乐净土
short tune[] = {
  0,0,0,NOTE_CS5,NOTE_E5,
  NOTE_FS5,0,0,NOTE_E5,NOTE_FS5,0,0,NOTE_E5,
  NOTE_FS5,NOTE_A5,NOTE_E5,NOTE_FS5,NOTE_CS5,0,NOTE_CS5,NOTE_E5,
  NOTE_FS5,0,0,NOTE_E5,NOTE_FS5,0,0,NOTE_E5,
  NOTE_FS5,NOTE_CS6,NOTE_A5,NOTE_B5,NOTE_FS5,0,NOTE_CS5,NOTE_E5,
  NOTE_FS5,0,0,NOTE_E5,NOTE_FS5,0,0,NOTE_E5,
  NOTE_FS5,NOTE_A5,NOTE_E5,NOTE_FS5,NOTE_CS5,NOTE_E5,NOTE_A4,NOTE_B4,
  NOTE_CS5,NOTE_A5,NOTE_FS5,NOTE_CS6,
  NOTE_B5,NOTE_CS6,NOTE_B5,NOTE_A5,NOTE_B5,NOTE_FS5,0,
  NOTE_FS5,NOTE_FS5,NOTE_FS5,NOTE_FS5,NOTE_A5,NOTE_B5,NOTE_CS6,
  NOTE_FS5,NOTE_FS5,NOTE_FS5,NOTE_E5,NOTE_E5,NOTE_FS5,
  NOTE_FS5,NOTE_FS5,NOTE_FS5,NOTE_FS5,NOTE_A5,NOTE_B5,NOTE_CS6,
  NOTE_FS5,NOTE_FS5,NOTE_FS5,NOTE_D6,NOTE_D6,NOTE_CS6,
  NOTE_FS5,NOTE_FS5,NOTE_FS5,NOTE_FS5,NOTE_A5,NOTE_B5,NOTE_CS6,
  NOTE_FS5,NOTE_FS5,NOTE_FS5,NOTE_E5,NOTE_E5,NOTE_FS5,
  NOTE_FS5,NOTE_FS5,NOTE_FS5,NOTE_FS5,NOTE_A5,NOTE_B5,NOTE_CS6,
  NOTE_FS6,NOTE_E5,NOTE_E5,NOTE_FS5,NOTE_FS5
};
short duration[]= {
  4,4,4,2,2,
  2,2,2,2,2,2,2,2,
  2,2,2,2,2,2,2,2,
  2,2,2,2,2,2,2,2,
  2,2,2,2,2,2,2,2,
  2,2,2,2,2,2,2,2,
  2,2,2,2,2,2,2,2,
  4,4,4,4,
  2,1,1,2,2,4,4,
  4,4,4,1,1,1,1,
  4,4,2,2,2,2,
  4,4,4,1,1,1,1,
  4,4,2,2,2,2,
  4,4,4,1,1,1,1,
  4,4,2,2,2,2,
  4,4,4,1,1,1,1,
  4+2,2,2,2,4
};
